# xmcd
#
# Track frame offsets:
#	150
#	5325
#	34655
#	56162
#	87490
#	110993
#	135074
#	153714
#
# Disc length: 2447 seconds
#
# Revision: 27
# Processed by: cddbd v1.5.2PL0 Copyright (c) Steve Scherf et al.
# Submitted via: Jack! The Knife 20 Magnifico
#
DISCID=64098d08
DTITLE=Black Sabbath - Headless Cross
DYEAR=1989
DGENRE=Metal
TTITLE0=The Gates Of Hell
TTITLE1=Headless Cross
TTITLE2=Devil and Daughter
TTITLE3=When Death Calls
TTITLE4=Kill In The Spirit World
TTITLE5=Call Of The Wild
TTITLE6=Black Moon
TTITLE7=Nightwing
EXTD=Tony Iommi, Cozy Powell
EXTT0=Martin, Iommi, Nicholls, Cottle, Powell
EXTT1=Martin, Iommi, Powell
EXTT2=Martin, Iommi, Powell
EXTT3=Martin, Iommi, Nicholls, Cottle, Powell
EXTT4=Martin, Iommi, Nicholls, Cottle, Powell
EXTT5=Martin, Iommi, Nicholls, Cottle, Powell
EXTT6=Martin, Iommi, Nicholls, Cottle, Powell
EXTT7=Martin, Iommi, Nicholls, Cottle, Powell
PLAYORDER=
